PathFileType	4	(X/Y/Z)	D:\TRACE\spot_10-12-23\spot_arm_body_motion_1_2-platform.trc
DataRate	CameraRate	NumFrames	NumMarkers	Units	OrigDataRate	OrigDataStartFrame	OrigNumFrames
100.00	100.00	      54	5	mm	100.00	6126	      7000
Frame#	Time	Left_Front			Right_Front			Left_Aft			Right_Aft			Post			
		X1	Y1	Z1	X2	Y2	Z2	X3	Y3	Z3	X4	Y4	Z4	X5	Y5	Z5	

6126	61.250	-787.28302	37.64515	-644.84949	780.52899	35.31145	-620.18903	-715.86609	-7.24204	492.97379	694.07806	-11.08877	593.09503	14.40845	781.95660	-927.28638	
6127	61.260	-786.32214	37.99010	-644.87836	781.49298	35.62293	-620.01874	-714.90808	-7.42924	493.00525	695.01044	-11.33537	593.17450	15.41665	782.29742	-926.73016	
6128	61.270	-785.49921	38.29828	-644.89288	782.40283	35.82401	-619.91675	-713.88556	-7.45920	493.01367	695.88123	-11.52722	593.28253	16.25508	782.60254	-926.13312	
6129	61.280	-784.42389	38.32417	-644.72235	783.31006	35.91028	-619.92780	-713.19781	-7.53133	492.88574	696.99658	-11.68974	593.33820	17.10604	782.88544	-925.41278	
6130	61.290	-783.40070	38.52512	-644.60992	784.27820	36.17833	-619.87152	-711.86621	-7.68625	492.94376	697.81830	-11.96477	593.25549	18.15462	783.16467	-924.59393	
6131	61.300	-782.47906	38.79392	-644.63257	785.05121	36.18927	-619.85278	-711.19281	-7.85042	493.05215	698.84277	-12.04136	593.41046	19.29819	783.45612	-923.83466	
6132	61.310	-781.50598	38.89590	-644.54565	786.11676	36.41313	-619.66101	-710.03870	-8.14655	493.14215	699.91357	-12.06330	593.53351	19.95714	783.74097	-923.43890	
6133	61.320	-780.33972	38.81136	-644.44714	787.22357	36.83483	-619.65613	-708.95367	-8.24339	493.23447	700.68628	-12.21505	593.57800	21.21831	783.92236	-922.81677	
6134	61.330	-779.19269	38.61477	-644.54645	788.17340	36.71066	-619.64758	-708.35522	-8.37590	493.25214	701.90460	-12.35836	593.54767	22.27251	784.02472	-922.63611	
6135	61.340	-778.59515	39.18032	-644.45892	789.25049	36.98566	-619.49402	-706.84546	-8.34513	493.18561	702.70337	-12.69737	593.57556	23.10704	784.24902	-922.55725	
6136	61.350	-777.57178	39.36058	-644.39154	790.17938	37.33210	-619.39185	-706.11072	-8.51353	493.19049	703.65851	-12.77347	593.67950	23.94958	784.58130	-922.62604	
6137	61.360	-776.49316	39.62742	-644.20679	791.09674	37.47302	-619.38690	-705.05035	-8.54728	493.25342	704.60962	-12.88524	593.71045	24.96985	785.01013	-922.93481	
6138	61.370	-775.66248	40.07496	-644.11139	792.22559	37.91740	-619.27032	-703.96094	-8.79897	493.34518	705.72449	-13.14527	593.73566	26.06869	785.56287	-923.08844	
6139	61.380	-774.75397	40.30253	-644.12274	793.02838	37.99626	-619.26196	-703.12396	-8.98901	493.38831	706.65759	-13.19915	593.83490	26.78708	785.74268	-923.12677	
6140	61.390	-773.75061	40.24570	-643.99579	794.07574	38.17075	-619.12402	-702.04266	-9.09531	493.52264	707.48456	-13.42390	593.92737	27.77583	786.01514	-923.18475	
6141	61.400	-772.77020	40.26222	-643.94586	795.03931	38.39030	-618.99890	-701.31348	-9.18186	493.51044	708.51959	-13.68334	593.95184	28.77745	786.16766	-923.09290	
6142	61.410	-771.80664	40.70898	-644.03650	795.88855	38.47426	-619.05450	-700.21899	-9.37687	493.49600	709.54828	-13.65120	594.01965	29.88621	786.25793	-922.78241	
6143	61.420	-770.87866	40.94962	-644.08972	796.97687	38.62113	-619.06287	-699.28119	-9.30987	493.54321	710.31781	-13.83367	594.09772	30.91713	786.45129	-922.32574	
6144	61.430	-769.78601	40.96917	-643.87299	797.97107	38.96363	-618.92969	-698.42230	-9.25493	493.57404	711.44141	-13.95393	594.08826	31.73925	786.75366	-921.76440	
6145	61.440	-768.93835	41.09706	-643.70679	798.63208	38.78662	-618.94000	-697.15210	-9.63335	493.63974	712.39850	-13.96712	594.04504	32.65753	786.81757	-921.08447	
6146	61.450	-767.93854	41.10989	-643.76404	799.56488	38.77309	-618.87799	-696.42065	-9.75483	493.61844	713.12115	-14.09411	593.67950	33.43355	786.96527	-920.60809	
6147	61.460	-767.10034	41.19644	-643.81665	800.70154	38.95776	-618.81598	-695.50110	-9.79940	493.70657	714.42865	-14.21038	594.15906	34.63773	787.16632	-919.98035	
6148	61.470	-765.81866	41.06143	-643.67218	801.70209	39.08166	-618.82697	-694.41840	-9.82052	493.67355	715.15240	-14.25264	594.17200	35.71550	787.40448	-919.57251	
6149	61.480	-764.87836	41.46950	-643.65735	802.70514	39.45140	-618.67627	-693.67871	-9.86539	493.66473	716.17120	-14.31470	594.13068	36.56825	787.65454	-919.37286	
6150	61.490	-763.95923	41.49313	-643.80896	803.66138	39.54604	-618.62512	-692.56769	-9.91579	493.83197	717.21643	-14.55907	594.18481	37.31923	787.87756	-919.19995	
6151	61.500	-763.15833	41.65278	-643.72504	804.51318	39.65083	-618.61322	-691.79523	-10.05961	493.81488	718.02728	-14.64379	594.32220	38.20074	788.05725	-919.00415	
6152	61.510	-762.17297	41.68928	-643.46887	805.41205	39.76793	-618.51318	-690.81824	-10.31073	493.87057	718.99500	-14.76825	594.45123	39.43834	788.23053	-919.12372	
6153	61.520	-761.32343	41.99153	-643.32935	806.38715	40.04818	-618.54443	-689.74347	-10.49339	493.94894	719.94543	-14.86437	594.51013	40.15753	788.39868	-919.40778	
6154	61.530	-760.42371	42.13083	-643.30365	807.20496	40.27746	-618.52936	-688.96667	-10.50083	493.96259	720.70020	-15.13045	594.03741	40.99476	788.74011	-919.47949	
6155	61.540	-759.47101	42.23728	-643.35870	808.29248	40.38634	-618.30981	-687.93134	-10.52806	494.03748	721.74774	-15.12297	594.50330	41.98340	788.95831	-919.50769	
6156	61.550	-758.46985	42.34344	-643.39758	809.17810	40.38400	-618.27930	-687.05701	-10.65704	494.08020	722.56427	-15.25273	594.60663	42.97352	789.02313	-919.46606	
6157	61.560	-757.48120	42.23195	-643.21393	809.92291	40.39203	-618.31525	-686.20490	-10.68678	494.09070	723.58252	-15.21660	594.57568	43.80707	789.06696	-919.34692	
6158	61.570	-756.98169	42.42849	-643.15149	810.97156	40.44733	-618.29102	-685.29785	-10.72988	494.14191	724.48169	-15.23805	594.52722	44.48961	789.26611	-919.29150	
6159	61.580	-756.04242	42.47959	-643.31183	811.77008	40.57426	-618.25452	-684.55096	-10.79307	494.04797	725.23492	-15.40644	594.55743	45.67906	789.34094	-918.79724	
6160	61.590	-755.05908	42.57322	-643.18292	812.64545	40.71221	-618.32153	-683.50409	-10.86638	494.12045	726.10809	-15.37361	594.66431	46.54722	789.46661	-918.48706	
6161	61.600	-754.18225	42.63697	-643.03357	813.30566	40.51127	-618.30872	-682.60455	-11.01245	494.17166	727.07477	-15.42899	594.55969	47.30062	789.64703	-918.22540	
6162	61.610	-753.37482	42.66595	-643.04401	814.25513	40.85827	-618.21002	-681.84552	-11.09514	494.18283	727.96515	-15.53211	594.65643	48.07876	789.68933	-917.85413	
6163	61.620	-752.68243	42.86533	-643.14435	815.13031	40.86539	-618.23181	-680.93347	-11.10664	494.19052	728.67029	-15.66115	594.38306	48.91214	789.70667	-917.47534	
6164	61.630	-751.63153	42.93189	-643.03320	816.03467	40.94775	-618.16754	-680.13812	-11.12464	494.17526	729.48389	-15.63293	594.78479	49.74584	789.85150	-917.29553	
6165	61.640	-750.83368	43.08700	-642.86139	816.98700	41.06865	-618.03705	-679.45270	-11.11253	494.23004	730.36456	-15.76575	594.77063	50.41121	790.05554	-917.48486	
6166	61.650	-750.08551	43.20108	-642.82074	817.76294	41.10599	-618.03564	-678.48517	-11.15038	494.30527	731.43469	-15.77913	594.79071	51.35323	790.16864	-917.50464	
6167	61.660	-749.26776	43.27188	-642.99756	818.49829	41.17502	-618.00690	-677.69672	-11.27423	494.27228	732.13147	-15.77188	594.92377	52.25197	790.18030	-917.47534	
6168	61.670	-748.51294	43.72095	-643.03760	819.23120	41.26851	-618.02753	-677.02484	-11.23616	494.29288	732.74213	-15.82855	594.90045	52.91741	790.11017	-917.38538	
6169	61.680	-747.76703	43.36698	-642.84619	820.02124	41.35915	-618.01886	-676.17529	-11.34288	494.36572	733.56415	-15.80480	594.88019	53.54665	790.12964	-917.34247	
6170	61.690	-746.85840	42.87492	-642.75793	820.91956	41.15689	-617.97772	-675.34033	-11.38203	494.37076	734.42438	-15.90399	594.80115	54.44207	790.28186	-917.50049	
6171	61.700	-746.16699	43.06005	-642.84863	821.67493	41.12115	-618.03784	-674.45154	-11.39498	494.39713	735.07996	-16.06711	594.49847	55.41184	790.27960	-917.73157	
6172	61.710	-745.42981	43.44747	-642.98376	822.35461	41.47533	-617.98151	-673.85681	-11.49906	494.39105	735.82556	-15.94625	594.84784	56.09278	790.21417	-917.70184	
6173	61.720	-744.77551	43.45225	-642.93640	822.98944	41.42496	-618.02399	-673.26727	-11.38101	494.45792	736.46674	-15.94895	594.82703	56.75338	790.30408	-917.58099	
6174	61.730	-743.99030	43.52223	-642.75647	823.80182	41.37657	-617.97400	-672.45935	-11.37002	494.56036	737.21991	-15.97115	594.90948	57.47263	790.49036	-917.32654	
6175	61.740	-743.21002	43.45238	-642.79828	824.51898	41.39910	-617.73444	-671.80713	-11.29649	494.45636	737.99365	-15.98967	594.84857	96.26614	774.39630	-927.74573	
6176	61.750	-742.65576	43.39539	-642.89105	825.14258	41.42978	-617.81543	-671.09595	-11.30237	494.42676	738.62531	-15.94095	594.82782	58.61699	790.29193	-917.44751	
6177	61.760	-742.04535	43.04010	-642.83258	825.75549	41.44350	-617.95837	-670.43500	-11.37088	494.39648	739.21857	-15.92596	594.90240	59.24039	790.21948	-917.35687	
6178	61.770	-741.40619	43.14737	-643.02789	826.34344	41.25822	-617.95685	-669.88214	-11.37601	494.35556	739.91144	-15.77436	594.92889	60.08374	790.10486	-917.25250	
6179	61.780	-740.68439	43.43199	-642.90302	827.09241	40.96471	-617.93256	-669.25116	-11.20323	494.29486	740.37488	-15.79636	594.46075	60.93295	789.96619	-917.11377	
